<svg xmlns="http://www.w3.org/2000/svg" viewBox="0 0 1080 1080" width="1080" height="1080" role="img" aria-label="Carrusel slide 7 · datos prácticos y CTA">
  <title>Slide 7 · datos prácticos</title>
  <rect width="100%" height="100%" fill="#2D6A4F"/>
  <rect x="40" y="40" width="1000" height="1000" fill="none" stroke="#52B788" stroke-width="2"/>

  <text x="540" y="135" text-anchor="middle" font-family="Inter, sans-serif" font-weight="600" font-size="22" fill="#D4845A" letter-spacing="6">TE ESPERAMOS</text>

  <g transform="translate(440,200)" stroke="#FAFAF7" stroke-width="3" fill="none" stroke-linecap="round" stroke-linejoin="round">
    <path d="M 50 60 C 100 38, 180 35, 240 50 L 256 58 L 262 48"/>
    <path d="M 50 60 L 35 42 L 26 28 L 22 22"/>
    <path d="M 24 24 L 18 10"/>
    <path d="M 22 22 L 13 28"/>
    <path d="M 58 68 L 58 116"/>
    <path d="M 76 64 L 76 112"/>
    <path d="M 215 64 L 218 116"/>
    <path d="M 240 60 L 246 112"/>
    <path d="M 76 86 L 215 86"/>
  </g>

  <text x="540" y="465" text-anchor="middle" font-family="Inter, sans-serif" font-weight="800" font-size="92" fill="#FAFAF7" letter-spacing="-2">21—30</text>
  <text x="540" y="540" text-anchor="middle" font-family="Inter, sans-serif" font-weight="700" font-size="38" fill="#FAFAF7" letter-spacing="-0.5">junio 2026</text>

  <line x1="440" y1="585" x2="640" y2="585" stroke="#D4845A" stroke-width="3"/>

  <text x="540" y="640" text-anchor="middle" font-family="Inter, sans-serif" font-weight="700" font-size="34" fill="#FAFAF7" letter-spacing="-0.5">La Esquina del Peso</text>
  <text x="540" y="678" text-anchor="middle" font-family="Inter, sans-serif" font-weight="500" font-size="22" fill="#95D5B2">Calle del Peso 1 · Oviedo</text>

  <text x="540" y="755" text-anchor="middle" font-family="Inter, sans-serif" font-weight="700" font-size="24" fill="#D4845A">Inauguración: sábado 21 · 19:30</text>

  <line x1="440" y1="800" x2="640" y2="800" stroke="#52B788" stroke-width="1.5" opacity="0.5"/>

  <text x="540" y="855" text-anchor="middle" font-family="Inter, sans-serif" font-weight="500" font-size="20" fill="#FAFAF7">662 58 57 98 · domingodelena@gmail.com</text>
  <text x="540" y="890" text-anchor="middle" font-family="Inter, sans-serif" font-weight="700" font-size="22" fill="#D4845A">@txomidelena</text>

  <text x="540" y="965" text-anchor="middle" font-family="Inter, sans-serif" font-style="italic" font-size="18" fill="#95D5B2">¿Te gusta? Comparte ↗</text>

  <text x="110" y="995" font-family="Inter, sans-serif" font-size="18" fill="#95D5B2">← 6/7</text>
  <text x="970" y="995" text-anchor="end" font-family="Inter, sans-serif" font-size="18" fill="#95D5B2">7/7</text>
</svg>
