<svg xmlns="http://www.w3.org/2000/svg" viewBox="0 0 1080 1080" width="1080" height="1080" role="img" aria-label="Carrusel slide 1 · portada">
  <title>Slide 1 · portada</title>
  <rect width="100%" height="100%" fill="#FAFAF7"/>
  <rect x="40" y="40" width="1000" height="1000" fill="none" stroke="#E5E5E0" stroke-width="2"/>

  <text x="540" y="135" text-anchor="middle" font-family="Inter, sans-serif" font-weight="600" font-size="22" fill="#D4845A" letter-spacing="6">EXPOSICIÓN · OVIEDO</text>

  <g transform="translate(290,210) scale(1.9)" stroke="#2D6A4F" stroke-width="3" fill="none" stroke-linecap="round" stroke-linejoin="round">
    <path d="M 50 60 C 100 38, 180 35, 240 50 L 256 58 L 262 48"/>
    <path d="M 50 60 L 35 42 L 26 28 L 22 22"/>
    <path d="M 24 24 L 18 10"/>
    <path d="M 22 22 L 13 28"/>
    <path d="M 58 68 L 58 116"/>
    <path d="M 76 64 L 76 112"/>
    <path d="M 215 64 L 218 116"/>
    <path d="M 240 60 L 246 112"/>
    <path d="M 76 86 L 215 86"/>
  </g>

  <line x1="440" y1="570" x2="640" y2="570" stroke="#D4845A" stroke-width="3"/>

  <text x="540" y="640" text-anchor="middle" font-family="Inter, sans-serif" font-weight="800" font-size="56" fill="#2D6A4F" letter-spacing="-1.2">DOMINGO</text>
  <text x="540" y="694" text-anchor="middle" font-family="Inter, sans-serif" font-weight="700" font-size="36" fill="#1B1B1B" letter-spacing="-0.4">González de Lena</text>

  <text x="540" y="754" text-anchor="middle" font-family="Inter, sans-serif" font-weight="500" font-size="22" fill="#3D3D3D">Arte paleolítico asturiano en piedra</text>

  <text x="540" y="836" text-anchor="middle" font-family="Inter, sans-serif" font-weight="800" font-size="44" fill="#D4845A">21 — 30 junio</text>

  <text x="540" y="888" text-anchor="middle" font-family="Inter, sans-serif" font-weight="700" font-size="24" fill="#1B1B1B">La Esquina del Peso</text>
  <text x="540" y="918" text-anchor="middle" font-family="Inter, sans-serif" font-weight="500" font-size="18" fill="#767676">Calle del Peso 1 · Oviedo</text>

  <text x="970" y="995" text-anchor="end" font-family="Inter, sans-serif" font-size="18" fill="#767676">desliza →</text>
</svg>
